<svg xmlns="http://www.w3.org/2000/svg" width="100" height="100" viewBox="0 0 100 100"><rect width="100%" height="100%" fill="#F2F2F2"/><path fill="#2A2F45" d="M27.908 49.525q0 2.99.64 5.48.64 2.5 1.86 4.31 1.22 1.8 3.02 2.8 1.8 1 4.13 1 1.44 0 2.9-.38t2.83-1.11q1.37-.73 2.6-1.79 1.22-1.05 2.19-2.38l2.2 2.02q-1.69 2.34-3.53 3.78-1.84 1.43-3.66 2.23t-3.53 1.08q-1.7.28-3.12.28-3.57 0-6.48-1.27-2.91-1.27-4.97-3.48-2.07-2.21-3.19-5.2-1.13-2.99-1.13-6.42 0-2.09.45-4.19.45-2.1 1.34-4.02.89-1.92 2.23-3.58 1.35-1.67 3.14-2.9 1.78-1.24 4.02-1.93 2.23-.7 4.9-.7.9 0 1.9.15 1 .14 2.04.43 1.03.3 2.04.71 1.01.42 1.93.98h.05l-.16-1.96h3.55v10.76h-3.01q-.63-3.84-2.54-5.78-1.91-1.94-5.19-1.94-2.4 0-4.19 1.1-1.78 1.1-2.95 2.92-1.17 1.82-1.74 4.16-.57 2.35-.57 4.84Zm38.38 4.92q-.54.03-.98.04-.43.01-.83.01h-.76q-.37 0-.78-.02v4.06q0 1.26-.04 2.42-.05 1.15-.14 1.74l3.91-.14v3.55h-13.65v-3.03q.76-.05 1.38-.15.62-.1 1.03-.49.42-.4.64-1.18.23-.79.23-2.18v-17.63q0-.63.01-1.24.01-.6.03-1.15.02-.55.06-1 .03-.45.08-.74l-3.46.13v-3.55l13.09-.09q2.99-.02 5.43.56 2.43.59 4.16 1.81 1.73 1.22 2.67 3.13.95 1.91.95 4.59.02 1.93-.77 3.76-.78 1.83-2.39 3.31-1.6 1.48-4.05 2.43-2.45.94-5.82 1.05Zm-1.28-3.28q1.89 0 3.26-.48 1.37-.48 2.24-1.43.88-.94 1.3-2.31.41-1.37.41-3.12 0-1.53-.29-2.63-.29-1.1-.79-1.85-.49-.75-1.13-1.22-.64-.46-1.33-.69-.68-.24-1.37-.32-.68-.07-1.27-.07-.74 0-1.31.11-.57.11-.97.49-.39.38-.6 1.1-.22.72-.22 1.93v10.36q.5.04 1.02.09.51.04 1.05.04Z"/></svg>
