<svg xmlns="http://www.w3.org/2000/svg" width="100" height="100" viewBox="0 0 100 100"><rect width="100%" height="100%" fill="#f2f2f2"/><path fill="#2a2f45" d="M36.285 66.5v-3.1q.78-.04 1.42-.15.63-.1 1.05-.5.43-.4.66-1.21.22-.8.22-2.22V41.3q0-.64.02-1.26.01-.62.03-1.18.02-.56.06-1.02.03-.46.08-.76l-3.54.14v-3.63l13.04-.09q2.73 0 4.94.49 2.22.5 3.79 1.49 1.57 1 2.42 2.52.85 1.51.85 3.58 0 1.19-.39 2.2-.39 1.01-1.2 1.95-.82.94-2.09 1.71-1.28.77-3.04 1.25v.05q2.34.36 4.05 1.18 1.71.81 2.83 1.93 1.13 1.11 1.68 2.48.55 1.36.55 2.83 0 2.29-.86 4.04-.86 1.74-2.39 2.92-1.52 1.19-3.61 1.78-2.09.6-4.57.6h-16Zm9.96-3.33q1.24 0 2.37-.01 1.12-.01 2.22-.06 1.43-.07 2.46-.54 1.03-.47 1.7-1.27.66-.8.98-1.89.33-1.09.33-2.4 0-1.61-.52-2.7t-1.38-1.75q-.86-.67-1.95-.94-1.09-.28-2.21-.28-2.23 0-3.81.05v7.64q0 .64-.01 1.25-.02.61-.04 1.16-.02.55-.06 1-.03.44-.08.74Zm.19-15.12 2.45-.07q1.5-.02 2.5-.53 1.01-.5 1.63-1.36.62-.86.89-1.99.26-1.12.26-2.43 0-1.42-.45-2.36-.44-.95-1.14-1.5t-1.6-.78q-.89-.23-1.79-.23-.57.03-1.08.14-.5.12-.87.52t-.58 1.17q-.22.77-.22 2.12v7.3Z"/></svg>
