
<svg xmlns="http://www.w3.org/2000/svg" width="500" height="500" viewBox="0 0 500 500"><rect width="100%" height="100%" fill="#DDDDDD"/><path fill="#999999" d="M125.39 232.58h5.81v35.43h-3.38q-.79 0-1.31-.26-.53-.25-1.02-.87l-18.5-23.62q.15 1.62.15 2.99v21.76h-5.81v-35.43h3.46q.42 0 .72.04.31.04.54.15.23.11.45.32.22.2.49.55l18.58 23.71q-.08-.86-.13-1.69t-.05-1.54v-21.54Zm23.87 9.9q2.79 0 5.08.91 2.29.9 3.92 2.57t2.51 4.07q.88 2.4.88 5.36 0 2.99-.88 5.39-.88 2.4-2.51 4.09t-3.92 2.6q-2.29.91-5.08.91-2.82 0-5.12-.91-2.31-.91-3.94-2.6t-2.52-4.09q-.89-2.4-.89-5.39 0-2.96.89-5.36.89-2.4 2.52-4.07 1.63-1.67 3.94-2.57 2.3-.91 5.12-.91Zm0 21.24q3.13 0 4.64-2.1 1.51-2.11 1.51-6.18t-1.51-6.2q-1.51-2.13-4.64-2.13-3.19 0-4.72 2.15-1.53 2.14-1.53 6.18 0 4.04 1.53 6.16t4.72 2.12Zm25.4 4.68q-3.28 0-5.03-1.85-1.75-1.85-1.75-5.11v-14.03h-2.58q-.49 0-.83-.32-.34-.32-.34-.96v-2.4l4.04-.66 1.27-6.86q.13-.49.47-.76.34-.27.88-.27h3.14v7.91h6.71v4.32h-6.71v13.62q0 1.17.57 1.83.58.67 1.58.67.57 0 .95-.14.38-.13.66-.28.28-.15.5-.28.22-.14.44-.14.27 0 .44.14.17.13.37.4l1.81 2.94q-1.32 1.11-3.03 1.67-1.72.56-3.56.56Zm9.66-12.66v-5.05h12.69v5.05h-12.69Zm26.87-1.11h11.27l-4.31-11.78q-.32-.79-.66-1.86-.34-1.08-.69-2.33-.32 1.25-.66 2.34-.34 1.09-.66 1.9l-4.29 11.73Zm8.99-22.05 13.92 35.43H229q-.85 0-1.39-.43-.54-.43-.81-1.06l-2.65-7.23h-14.67l-2.65 7.23q-.19.56-.76 1.02-.56.47-1.39.47h-5.15l13.94-35.43h6.71Zm34.52 10.29h4.78l-9.97 25.14h-5.49l-9.97-25.14h5q.69 0 1.14.32.45.32.6.81l4.85 13.43q.39 1.17.69 2.3.29 1.13.51 2.25.25-1.12.54-2.25.29-1.13.71-2.3l4.95-13.43q.17-.49.61-.81.44-.32 1.05-.32Zm21.27 18.65v-4.24q-2.62.12-4.41.45t-2.87.85q-1.07.51-1.54 1.2-.46.68-.46 1.49 0 1.59.94 2.28.94.69 2.46.69 1.86 0 3.22-.68 1.36-.67 2.66-2.04Zm-12.79-13.21-1.08-1.93q4.34-3.97 10.44-3.97 2.21 0 3.95.72 1.73.72 2.94 2.01 1.2 1.29 1.82 3.07.63 1.79.63 3.92v15.88h-2.75q-.86 0-1.32-.26-.47-.25-.74-1.04l-.54-1.81q-.95.86-1.86 1.51-.9.64-1.88 1.09-.98.44-2.1.67-1.11.23-2.46.23-1.59 0-2.94-.43-1.35-.43-2.33-1.28-.98-.86-1.52-2.13-.54-1.28-.54-2.97 0-.95.32-1.9.32-.94 1.04-1.8.73-.86 1.88-1.62 1.15-.76 2.83-1.32 1.68-.56 3.9-.92 2.23-.35 5.1-.43v-1.47q0-2.52-1.08-3.73t-3.11-1.21q-1.47 0-2.44.34-.96.34-1.7.77-.73.43-1.33.77-.6.34-1.34.34-.64 0-1.08-.33-.44-.33-.71-.77Zm24.58-5.44h6.07v25.14h-6.07v-25.14Zm6.9-7.32q0 .78-.31 1.47-.32.68-.85 1.2-.53.51-1.24.82-.71.3-1.52.3-.78 0-1.48-.3-.7-.31-1.21-.82-.52-.52-.82-1.2-.31-.69-.31-1.47 0-.81.31-1.52.3-.71.82-1.23.51-.51 1.21-.82.7-.3 1.48-.3.81 0 1.52.3.71.31 1.24.82.53.52.85 1.23.31.71.31 1.52Zm5.42-3.95h6.05v36.41h-6.05V231.6Zm25.38 29.92v-4.24q-2.62.12-4.41.45t-2.87.85q-1.07.51-1.54 1.2-.46.68-.46 1.49 0 1.59.94 2.28.94.69 2.46.69 1.86 0 3.22-.68 1.36-.67 2.66-2.04Zm-12.79-13.21-1.08-1.93q4.34-3.97 10.44-3.97 2.21 0 3.95.72 1.73.72 2.94 2.01 1.2 1.29 1.82 3.07.63 1.79.63 3.92v15.88h-2.75q-.86 0-1.32-.26-.47-.25-.74-1.04l-.54-1.81q-.95.86-1.86 1.51-.9.64-1.88 1.09-.98.44-2.1.67-1.11.23-2.46.23-1.59 0-2.94-.43-1.35-.43-2.33-1.28-.98-.86-1.52-2.13-.54-1.28-.54-2.97 0-.95.32-1.9.32-.94 1.04-1.8.73-.86 1.88-1.62 1.15-.76 2.83-1.32 1.68-.56 3.9-.92 2.23-.35 5.1-.43v-1.47q0-2.52-1.08-3.73t-3.11-1.21q-1.47 0-2.44.34-.96.34-1.7.77-.73.43-1.33.77-.6.34-1.34.34-.64 0-1.08-.33-.44-.33-.71-.77Zm30.43 1.91v11.27q1.03 1.25 2.24 1.77 1.22.51 2.56.51 1.4 0 2.51-.5 1.12-.5 1.9-1.57.79-1.06 1.2-2.72.42-1.65.42-3.96 0-4.14-1.37-5.99-1.37-1.84-3.95-1.84-1.74 0-3.03.79-1.3.8-2.48 2.24Zm0-18.62v14.36q1.52-1.59 3.37-2.54 1.85-.94 4.23-.94 2.18 0 3.93.86t2.99 2.46q1.23 1.61 1.9 3.88.66 2.28.66 5.12 0 3.07-.76 5.57-.76 2.49-2.17 4.27-1.41 1.78-3.39 2.76-1.99.98-4.41.98-1.18 0-2.14-.24-.95-.23-1.76-.64-.81-.42-1.48-1.02-.68-.6-1.29-1.34l-.27 1.69q-.14.64-.5.91-.35.27-.97.27h-3.99V231.6h6.05Zm21.83 0h6.05v36.41h-6.05V231.6Zm16.88 20.95h11.42q0-1.18-.33-2.22-.33-1.04-1-1.82-.66-.79-1.67-1.24-1.02-.45-2.37-.45-2.62 0-4.13 1.49-1.5 1.5-1.92 4.24Zm15.44 3.65h-15.56q.15 1.94.68 3.35.54 1.4 1.43 2.32.88.92 2.09 1.37 1.21.46 2.68.46 1.47 0 2.54-.35 1.06-.34 1.86-.75.8-.42 1.4-.76.6-.35 1.16-.35.76 0 1.13.57l1.74 2.2q-1.01 1.18-2.26 1.97-1.25.8-2.61 1.28-1.36.48-2.76.67-1.41.2-2.74.2-2.62 0-4.87-.87-2.26-.87-3.92-2.57-1.67-1.71-2.62-4.22-.96-2.51-.96-5.82 0-2.57.83-4.84.84-2.26 2.39-3.94 1.56-1.68 3.8-2.66 2.24-.98 5.06-.98 2.38 0 4.39.76 2 .76 3.45 2.22 1.45 1.46 2.27 3.57.82 2.12.82 4.84 0 1.38-.3 1.85-.29.48-1.12.48Z"/></svg>
