<svg xmlns="http://www.w3.org/2000/svg" width="100" height="100" viewBox="0 0 100 100"><rect width="100%" height="100%" fill="#F2F2F2"/><path fill="#2A2F45" d="m41.985 37.8-1.62-2.58q.84-.75 1.86-1.42 1.01-.68 2.19-1.18 1.17-.5 2.54-.78 1.38-.29 2.98-.29 2.18 0 3.96.6 1.79.6 3.07 1.71 1.27 1.11 1.97 2.69.7 1.57.7 3.52 0 1.9-.55 3.29t-1.37 2.41q-.83 1.03-1.82 1.78l-1.86 1.41q-.87.66-1.51 1.3t-.76 1.44l-.58 3.65h-4.23l-.42-4.07q-.15-1.18.34-2.07t1.3-1.62q.81-.74 1.81-1.43t1.88-1.5q.87-.81 1.46-1.82.59-1.02.59-2.42 0-.9-.34-1.61t-.94-1.22q-.6-.52-1.44-.79-.83-.28-1.81-.28-1.43 0-2.41.32-.99.31-1.68.7-.68.38-1.16.7-.47.31-.85.31-.9 0-1.3-.75m3.1 26.9q0-.77.29-1.48.29-.7.79-1.2t1.2-.8q.69-.3 1.5-.3.8 0 1.48.3.69.3 1.2.8.52.5.82 1.2.3.71.3 1.48 0 .8-.3 1.49-.3.68-.82 1.18-.51.5-1.2.79-.68.29-1.48.29-.81 0-1.5-.29-.7-.29-1.2-.79t-.79-1.18q-.29-.69-.29-1.49"/></svg>
