<svg xmlns="http://www.w3.org/2000/svg" width="600" height="848" viewBox="0 0 600 848"><rect width="100%" height="100%" fill="#F2F2F2"/><path fill="#2A2F45" d="m232.055 320.545-13.78-21.84q7.21-6.36 15.8-12.08 8.58-5.73 18.55-9.97 9.96-4.24 21.62-6.68 11.66-2.43 25.23-2.43 18.44 0 33.6 5.08 15.16 5.09 25.97 14.53 10.81 9.43 16.75 22.79 5.93 13.35 5.93 29.89 0 16.11-4.66 27.88-4.66 11.76-11.66 20.45-7 8.7-15.37 15.06t-15.79 11.97q-7.42 5.62-12.83 11.03-5.41 5.4-6.47 12.19l-4.87 30.95h-35.83l-3.6-34.56q-1.28-9.96 2.86-17.49 4.13-7.52 11.02-13.78 6.89-6.25 15.37-12.08t15.9-12.72 12.4-15.48q4.99-8.58 4.99-20.45 0-7.64-2.87-13.68-2.86-6.04-7.95-10.39-5.08-4.34-12.19-6.67-7.1-2.34-15.37-2.34-12.08 0-20.45 2.65-8.38 2.65-14.21 5.94t-9.86 5.94q-4.02 2.65-7.2 2.65-7.64 0-11.03-6.36m26.29 228.11q0-6.57 2.44-12.51t6.68-10.18 10.17-6.78q5.94-2.54 12.72-2.54 6.79 0 12.62 2.54t10.17 6.78q4.35 4.24 6.89 10.18 2.55 5.94 2.55 12.51 0 6.78-2.55 12.61-2.54 5.83-6.89 10.07-4.34 4.24-10.17 6.68t-12.62 2.44q-6.78 0-12.72-2.44-5.93-2.44-10.17-6.68t-6.68-10.07-2.44-12.61"/></svg>
