<svg xmlns="http://www.w3.org/2000/svg" width="100" height="100" viewBox="0 0 100 100"><rect width="100%" height="100%" fill="#F2F2F2"/><path fill="#2A2F45" d="M50.28 63.815q1.27 0 2.31-.34 1.04-.35 1.79-.96.75-.6 1.16-1.41.41-.8.41-1.72 0-1.24-.68-2.13-.67-.9-1.76-1.57-1.09-.68-2.43-1.22l-2.68-1.07q-2.27-.92-4.22-1.97-1.95-1.06-3.37-2.43-1.43-1.38-2.23-3.15t-.8-4.08q0-.97.24-2.01.24-1.05.75-2.04.52-1 1.37-1.9.85-.89 2.08-1.57 1.22-.68 2.84-1.07 1.62-.39 3.71-.39.92 0 1.97.15 1.06.15 2.11.43 1.06.27 2.03.7.98.42 1.76.97h.05l-.16-1.93h3.62v11h-3.07q-.65-4.02-2.75-5.97-2.1-1.95-5.4-1.95-1.01 0-1.92.3-.9.3-1.6.84-.7.54-1.12 1.28-.41.75-.41 1.62 0 1.1.46 1.97.46.87 1.4 1.63.94.76 2.36 1.47 1.43.71 3.38 1.49 1.17.48 2.43 1.06 1.26.57 2.45 1.27 1.2.7 2.27 1.56 1.06.86 1.85 1.92.8 1.05 1.27 2.33.47 1.27.47 2.81 0 2.09-.86 3.83-.86 1.75-2.45 3-1.58 1.25-3.81 1.95-2.22.7-4.95.7-.92 0-1.95-.15-1.04-.15-2.09-.44-1.06-.28-2.1-.72-1.05-.44-1.99-1.01h-.04l.16 2h-3.63v-11h3.08q.32 1.98 1.1 3.46t1.91 2.48q1.14.99 2.59 1.49 1.44.49 3.09.49Z"/></svg>
